<?xml version="1.0" encoding="UTF-8"?>
<svg width="521px" height="291px" viewBox="0 0 521 291" version="1.1" xmlns="http://www.w3.org/2000/svg" xmlns:xlink="http://www.w3.org/1999/xlink">
    <!-- Generator: Sketch 56.3 (81716) - https://sketch.com -->
    <title>request a demo</title>
    <desc>Created with Sketch.</desc>
    <g id="Page-1" stroke="none" stroke-width="1" fill="none" fill-rule="evenodd">
        <g id="Artboard" transform="translate(-131.000000, -135.000000)">
            <g id="request-a-demo" transform="translate(132.000000, 136.000000)">
                <g id="Group-3" transform="translate(321.397418, 144.500000) scale(-1, 1) translate(-321.397418, -144.500000) translate(184.345872, 0.000000)">
                    <path d="M64.8207487,134.912212 C83.4958644,144.580891 95.4385846,148.675224 100.648909,147.195209 C105.859234,145.715195 102.944312,136.178675 89.9876148,122.672081 C95.4681651,122.108584 105.445127,118.667731 119.9185,112.349522 C120.046189,124.867088 109.13959,139.078782 116.186869,145.021503 C119.518591,148.310939 127.70894,155.302507 130.602754,172.220253 L89.9876148,153.011145 C63.1014513,149.797875 52.7863239,168.858653 54.2722195,189.153144" id="Shape" stroke="#222222" stroke-width="2"></path>
                    <path d="M18.3924768,228.627434 C9.56443553,265.689546 14.0023261,275.684102 14.4858829,280.177094 C32.8603939,284.280159 45.7132655,286.989592 53.0444977,288.305394 M110.200051,286.020619 C124.252026,283.002148 117.711925,285.268584 138.304001,277.80575 C125.15081,253.453289 125.222376,223.09261 125.222376,212.796776" id="Shape" stroke="#222222" stroke-width="2"></path>
                    <path d="M160.457138,56.1464802 C158.486508,65.1958167 149.037872,80.0024143 132.111232,100.566273 C122.320938,113.424514 102.336005,121.694884 89.9876148,122.375014 M93.4914559,205.889483 C105.294977,210.739032 117.937338,213.65642 132.266943,212.570333 C153.115549,212.570333 184.319582,195.594839 229.354939,168.176404 C237.827482,164.323344 244.293163,162.860277 247.360415,162.20515 C260.327367,159.435572 266.88279,149.878956 266.88279,146.649617" id="Shape" stroke="#222222" stroke-width="2"></path>
                    <path d="M254.996448,149.967686 C266.483447,144.19764 271.929629,139.271855 271.334996,135.190332" id="Path-337" stroke="#222222" stroke-width="1.43000011" transform="translate(263.187672, 142.579009) rotate(-13.000000) translate(-263.187672, -142.579009) "></path>
                    <path d="M247.360415,150.482001 C266.056183,138.098601 273.645148,130.036534 270.127314,126.295801 C268.868792,124.306171 264.771307,128.912283 259.955211,131.315062 C251.79554,135.385973 242.161623,139.478569 245.054979,140.587127" id="Path-339" stroke="#222222" stroke-width="1.43000011"></path>
                    <path d="M92.3755544,139.302084 C85.64467,131.914729 83.4010419,122.930541 85.64467,112.349522 C99.0169792,110.563686 106.674781,107.693286 108.618075,103.738323 C111.042281,97.9036341 112.468646,93.1449969 110.543361,73.3155396" id="Path-343" stroke="#222222" stroke-width="2"></path>
                    <g id="Group-4" transform="translate(23.512058, 27.199269) rotate(-18.000000) translate(-23.512058, -27.199269) translate(4.890924, 10.067826)">
                        <path d="M9.52925742,7.52167387 C6.78195494,9.82306179 -2.55190004,23.5202272 3.81536278,27.6490366 C11.1702638,34.1134035 32.0296646,31.4840295 34.4924527,27.640273 C36.955241,23.7965166 35.6714762,3.27900462 22.6009703,3.28273848 C13.8889685,3.22839418 11.0365841,6.07199971 9.52925742,7.52167387 Z" id="Path-345" stroke="#222222" stroke-width="1.43000011" fill="#222222" fill-rule="nonzero" transform="translate(18.573724, 17.426772) rotate(-7.000000) translate(-18.573724, -17.426772) "></path>
                        <path d="M9.5268062,11.7089188 C12.6330508,14.4447833 14.7336771,16.2304624 15.8286851,17.0659562" id="Path-397" stroke="#FFFFFF" stroke-width="1.10000002" transform="translate(12.677746, 14.387438) scale(-1, 1) translate(-12.677746, -14.387438) "></path>
                    </g>
                    <path d="M96.2824965,94.9923236 C90.2160927,97.2528441 86.389697,96.6420564 84.8033095,93.1599608" id="Path-347" stroke="#222222" stroke-width="1.4"></path>
                    <ellipse id="Oval" fill="#222222" fill-rule="nonzero" cx="88.8352171" cy="75.4490797" rx="2.12722383" ry="2.1335401"></ellipse>
                    <ellipse id="Oval" fill="#222222" fill-rule="nonzero" cx="106.845712" cy="75.4490797" rx="2.12722383" ry="2.1335401"></ellipse>
                    <g id="Group" transform="translate(192.890264, 0.118258)" stroke="#222222" stroke-width="2">
                        <path d="M0.165845413,9.94744351 C-0.837307473,4.03440325 2.71038473,2.06338984 10.808922,4.03440325 C10.360096,15.9830368 6.81240385,17.9540504 0.165845413,9.94744351 Z" id="Path-348"></path>
                        <path d="M10.808922,3.29527322 C10.5699058,12.4358361 9.29912626,18.7142193 6.99658343,22.1304227 C3.54276917,27.2547279 11.2332153,30.5830152 14.7231852,24.8681406 C18.2131553,19.1532661 22.2745482,9.41064951 18.4988668,3.29527322 C15.9817457,-0.781644303 13.4184308,-0.781644303 10.808922,3.29527322 Z" id="Path-349"></path>
                        <path d="M19.6893182,3.29527322 C24.0819188,1.27927383 26.8826142,1.27927383 28.0914045,3.29527322 C29.9045899,6.31927232 27.9867975,24.3726213 22.010796,27.2547279 C17.6593297,28.7411191 15.5814979,24.8797982 16.8153223,21.600455 C19.8259731,15.3753527 20.7839717,9.27362533 19.6893182,3.29527322 Z" id="Path-350"></path>
                        <path d="M28.7476638,4.79841755 C30.3335814,2.79422511 32.0162292,2.293177 33.7956071,3.29527322 C36.4646741,4.79841755 38.8435506,23.6968523 33.7956071,23.6968523 C30.4303116,23.6968523 28.7476638,21.8639881 28.7476638,18.1982598" id="Path-351"></path>
                        <path d="M36.4646741,3.29527322 C44.5480373,-0.517657825 49.2904026,-1.02165767 50.6917699,1.78327368 C52.7938207,5.99067071 45.5697007,11.4620211 39.1605849,11.4620211" id="Path-352"></path>
                    </g>
                </g>
                <g id="Group-2" transform="translate(184.775332, 131.862878) scale(-1, 1) translate(-184.775332, -131.862878) translate(0.053682, 14.922156)">
                    <path d="M335.481467,106.405808 C335.363089,106.41566 330.571308,106.4219 330.452548,106.42452 C299.381325,107.110078 275.748338,107.452858 259.553592,107.452858 C254.258209,107.452858 248.570923,107.416209 242.491734,107.342911 M231.672813,107.181118 C222.142399,107.012876 211.776589,106.766512 200.575382,106.442026 C197.575082,106.355102 195.129012,104.009791 194.917715,101.017403 C193.613563,82.5479249 192.961488,68.7357534 192.961488,59.5808883 C192.961488,52.8060331 193.318591,47.4065214 194.032799,43.3823531 C194.527504,40.5949396 196.951875,38.5639261 199.784431,38.5639261 L328.857293,38.5639261 C332.083417,38.5639261 334.698706,41.1777078 334.698706,44.4019712 C334.698706,54.2472099 334.698706,64.0924487 334.698706,73.9376875 C334.698706,76.4529543 334.751803,79.1270684 334.857997,81.9600301" id="Shape" stroke="#222222" stroke-width="2"></path>
                    <rect id="Rectangle-Copy-12" stroke="#222222" stroke-width="0.784079998" opacity="0.229999989" x="209.901461" y="50.8240346" width="8.17822361" height="43.2011057" rx="2.7449401"></rect>
                    <rect id="Rectangle" stroke="#FFFFFF" stroke-width="0.784079998" x="209.901461" y="76.5114328" width="8.17822361" height="17.5137075" rx="2.7449401"></rect>
                    <rect id="Rectangle-Copy-5" stroke="#222222" stroke-width="0.784079998" opacity="0.229999989" x="225.089134" y="50.8240346" width="8.17822361" height="43.2011057" rx="2.7449401"></rect>
                    <rect id="Rectangle-Copy-6" stroke="#222222" stroke-width="0.784079998" opacity="0.229999989" x="240.276808" y="50.8240346" width="8.17822361" height="43.2011057" rx="2.7449401"></rect>
                    <path d="M144.633003,106.0985 C156.479272,101.935417 164.99051,90.461541 164.99051,76.9590578 C164.99051,70.4172442 161.69307,64.2144432 158.1197,59.0949846 C156.250622,56.4172138 155.237789,54.0358337 152.581167,52.05736 C149.303886,49.6166608 145.594544,49.1891078 141.652458,48.2548133 C139.429567,47.7279765 137.13267,46.1478781 134.797505,46.1478781 C121.72567,46.1478781 110.262086,54.7018539 106.168001,67.1512701 C105.136439,70.288073 104.604501,73.5904903 104.604501,76.9590578 C104.604501,92.9128883 116.486661,106.034671 131.712794,107.611406 L144.633003,106.0985 Z M134.141136,95.9702111 C123.62855,95.9702111 115.106415,87.4586278 115.106415,76.9590578 C115.106415,74.8712844 115.441315,72.8363765 116.090083,70.9055564 C118.669856,63.2278127 125.899532,57.9479044 134.141136,57.9479044 C138.23314,57.9479044 142.115832,59.2341667 145.346859,61.5892225 C150.234201,65.1515442 153.175856,70.8048083 153.175856,76.9590578 C153.175856,87.4586278 144.653721,95.9702111 134.141136,95.9702111 Z" id="Oval" stroke="#222222" stroke-width="1.10000002" opacity="0.200000003"></path>
                    <rect id="Rectangle-Copy-7" stroke="#222222" stroke-width="0.784079998" opacity="0.229999989" x="255.46448" y="50.8240346" width="8.17822361" height="43.2011057" rx="2.7449401"></rect>
                    <rect id="Rectangle-Copy-8" stroke="#222222" stroke-width="0.784079998" opacity="0.229999989" x="270.652153" y="50.8240346" width="8.17822361" height="43.2011057" rx="2.7449401"></rect>
                    <rect id="Rectangle-Copy-11" stroke="#222222" stroke-width="0.784079998" opacity="0.229999989" x="285.839827" y="50.8240346" width="8.17822361" height="43.2011057" rx="2.7449401"></rect>
                    <rect id="Rectangle-Copy-10" stroke="#222222" stroke-width="0.784079998" opacity="0.229999989" x="313.878607" y="50.8240346" width="8.17822361" height="43.2011057" rx="2.7449401"></rect>
                    <rect id="Rectangle-Copy-9" stroke="#222222" stroke-width="0.784079998" opacity="0.229999989" x="299.859217" y="50.8240346" width="8.17822361" height="43.2011057" rx="2.7449401"></rect>
                    <rect id="Rectangle-Copy-4" stroke="#FFFFFF" stroke-width="0.784079998" x="313.878607" y="74.1762148" width="8.17822361" height="19.8489255" rx="2.7449401"></rect>
                    <rect id="Rectangle-Copy-2" stroke="#FFFFFF" stroke-width="0.784079998" x="285.839827" y="60.1649067" width="8.17822361" height="33.8602336" rx="2.7449401"></rect>
                    <rect id="Rectangle" stroke="#FFFFFF" stroke-width="0.784079998" x="225.089134" y="62.5001247" width="8.17822361" height="31.5250156" rx="2.7449401"></rect>
                    <rect id="Rectangle-Copy" stroke="#FFFFFF" stroke-width="0.784079998" x="270.652153" y="62.5001247" width="8.17822361" height="31.5250156" rx="2.7449401"></rect>
                    <rect id="Rectangle-Copy-3" stroke="#FFFFFF" stroke-width="0.784079998" x="299.859217" y="62.5001247" width="8.17822361" height="31.5250156" rx="2.7449401"></rect>
                    <rect id="Rectangle" stroke="#FFFFFF" stroke-width="0.784079998" x="240.276808" y="57.8296886" width="8.17822361" height="36.1954516" rx="2.7449401"></rect>
                    <rect id="Rectangle" stroke="#FFFFFF" stroke-width="0.784079998" x="255.46448" y="55.4944706" width="8.17822361" height="38.5306697" rx="2.7449401"></rect>
                    <path d="M73.6933377,35.9893002 L73.6933377,4.70326475 C73.6933377,2.12385415 75.7855694,0.0328287044 78.3664678,0.0328287044 C94.0427006,0.0223723178 104.980513,0.0171441244 111.179903,0.0171441244 M141.182,0.0620771564 C151.647068,0.106730969 160.47839,0.175475324 167.675963,0.268310217 C215.855095,0.88972855 259.142552,2.36804672 288.192077,2.36804672 C300.886233,2.36804672 318.954981,1.58964072 342.398321,0.0328287044 C344.97922,0.0328287044 347.071451,2.12385415 347.071451,4.70326475 C347.295918,26.1144812 347.295918,41.2933984 347.071451,50.2400162 C346.437177,75.5204947 344.84184,94.7495435 344.84184,110.012581 C344.84184,121.395878 345.585044,138.415654 347.071451,161.07191 M342.398321,213.705278 L229.312702,213.705278 M230.037004,213.705278 C172.794444,212.107154 138.204126,211.308091 126.266052,211.308091 C115.403532,211.308091 99.4370043,212.107154 78.3664678,213.705278 C75.7855694,213.705278 73.6933377,211.614253 73.6933377,209.034841 C73.9351277,201.614909 73.9351277,198.595713 73.6933377,190.130146 M72.6888318,155.254143 C72.1048943,142.08483 71.5051546,133.843907 71.5051546,129.625798 C71.5051546,111.612736 72.2345489,90.8421743 73.6933377,67.3141119" id="Shape" stroke="#222222" stroke-width="2"></path>
                    <path d="M352.185044,47.9047982 L362.862011,47.9047982 C365.442378,47.9047982 367.534178,49.9965778 367.534178,52.5769449 C367.534178,52.7404494 367.525596,52.9038413 367.508466,53.0664459 C367.124326,56.7127978 366.932255,59.3863276 366.932255,61.0870348 C366.932255,63.5086921 367.321683,67.2965269 368.100538,72.4505393 M368.100538,116.392906 C368.505352,124.293231 368.62729,130.082845 368.466346,133.76175 C367.348853,159.305893 365.621825,179.037779 365.621825,192.957409 C365.621825,206.824024 366.176324,218.412674 367.28532,227.723357 C367.590508,230.285601 365.760804,232.610114 363.19856,232.915304 C362.858921,232.955758 362.515866,232.958794 362.175564,232.924357 C351.853958,231.879847 343.713286,231.357591 337.753551,231.357591 C330.696165,231.357591 320.580503,232.089938 307.406565,233.55463 M191.79834,233.55463 C155.879363,232.089938 133.012232,231.357591 123.196946,231.357591 C115.24769,231.357591 107.510804,231.837948 99.9862906,232.79866 C97.4267156,233.125457 95.0868464,231.315436 94.7600457,228.755861 C94.7349895,228.559616 94.7224234,228.361975 94.7224234,228.164137 L94.7224234,212.266332" id="Shape" stroke="#222222" stroke-width="2" opacity="0.209999993"></path>
                    <ellipse id="Oval" fill="#222222" fill-rule="nonzero" cx="298.930838" cy="10.0161466" rx="2.97938144" ry="2.9776638"></ellipse>
                    <ellipse id="Oval" fill="#222222" fill-rule="nonzero" cx="311.052422" cy="10.0161466" rx="2.97938144" ry="2.9776638"></ellipse>
                    <ellipse id="Oval" fill="#222222" fill-rule="nonzero" cx="323.174006" cy="10.0161466" rx="2.97938144" ry="2.9776638"></ellipse>
                    <path d="M144.543701,105.557303 C148.21599,103.922581 151.569292,101.549881 154.449752,99.0205369 C160.884666,93.3700141 163.67777,86.3044505 163.67777,76.9590578 L154.94656,76.9590578 C154.94656,82.7017736 152.487288,87.8580369 148.585359,91.3898884 C145.252834,94.4063405 139.585975,96.2378862 134.782139,96.2378862 C130.390797,96.2378862 126.349575,96.0154317 123.142271,93.4483717 C118.732935,89.9192287 115.899723,83.1229284 115.899723,76.9590578 C115.899723,74.8418888 116.231943,72.7783297 116.87552,70.8203237 C118.375778,66.2559697 121.461302,61.2192391 125.404996,58.9150803 C128.18843,57.2888199 130.086617,57.6802293 133.469399,57.6802293 L134.782139,46.1478781 L134.782139,46.1478781 C121.716956,46.1478781 110.259206,54.7018539 106.167205,67.1512701 C105.136169,70.288073 104.604501,73.5904903 104.604501,76.9590578 C104.604501,82.8989667 106.250782,87.1382397 109.102901,91.8432962 C114.421482,100.617201 121.5248,107.770237 132.373678,107.770237" id="Path" stroke="#FFFFFF" stroke-width="1.10000002" fill-rule="nonzero"></path>
                    <path d="M155.577829,125.397235 C161.297447,127.752864 177.593625,103.48832 172.558319,101.478177 C171.496417,98.3388669 166.000612,105.92863 159.472044,111.525895 C149.789671,119.827073 138.399532,127.526206 140.402956,119.990056 C143.757235,107.372476 144.509035,99.1383281 142.224863,97.8181472 C139.94069,96.4979663 137.335264,97.8181472 131.750288,113.006167 C113.660812,151.783506 30.8774025,160.930614 51.3412536,170.540881 C63.1417132,169.432554 46.3731725,158.615258 1.03563187,138.088989" id="Path-340" stroke="#222222" stroke-width="2"></path>
                    <path d="M74.4610992,18.1479336 C83.374146,16.5911216 110.839584,15.8127156 156.857412,15.8127156 C187.834458,15.8127156 225.404442,17.4424874 267.686652,18.1479336 C281.373294,18.3762847 302.922432,18.3762847 332.334062,18.1479336" id="Path-161" stroke="#222222" stroke-width="2"></path>
                    <path d="M171.291149,147.799116 C173.588465,148.215968 187.305834,146.665925 197.474978,146.509602 C207.644121,146.353279 215.320003,146.604813 224.804653,146.976491 C234.289304,147.348169 235.926048,148.700947 238.421176,147.799116" id="Path-162" stroke="#222222" stroke-width="2" stroke-linecap="round"></path>
                    <path d="M151.31912,161.739805 C154.23279,162.253127 180.516649,160.919301 193.414099,160.7268 C206.311551,160.534301 207.160593,160.269106 219.189906,160.7268 C231.21922,161.184496 233.295091,162.850344 236.459642,161.739805" id="Path-162-Copy" stroke="#222222" stroke-width="2" stroke-linecap="round"></path>
                    <path d="M113.660812,176.447523 C115.935094,176.711882 130.711229,177.321745 144.326889,177.007232 C155.870191,176.740591 165.839812,175.567588 174.374725,175.48354 C192.976817,175.300355 191.79255,176.011978 209.142522,176.447523 C226.492492,176.883068 231.975104,176.02343 236.459642,176.447523" id="Path-162-Copy-2" stroke="#222222" stroke-width="2" stroke-linecap="round"></path>
                    <path d="M270.758055,148.535243 C272.250181,149.181653 281.15972,146.778005 287.764661,146.535595 C294.369599,146.293185 299.355146,146.683238 305.515501,147.259599 C311.675858,147.835959 312.738935,149.933709 314.35954,148.535243" id="Path-162" stroke="#222222" stroke-width="2" stroke-linecap="round"></path>
                    <path d="M268.796521,162.068104 C270.288647,162.714514 283.748927,161.03487 290.353867,160.79246 C296.958807,160.55005 297.393612,160.2161 303.553968,160.79246 C309.714324,161.36882 310.777403,163.466571 312.398008,162.068104" id="Path-162-Copy" stroke="#222222" stroke-width="2" stroke-linecap="round"></path>
                    <path d="M268.796521,176.76873 C269.604038,177.118559 274.850517,177.925594 279.684952,177.509398 C283.783566,177.156549 287.323423,175.604307 290.353867,175.493087 C296.958807,175.250677 296.538315,176.19237 302.698672,176.76873 C308.859028,177.345091 310.805707,176.207526 312.398008,176.76873" id="Path-162-Copy-2" stroke="#222222" stroke-width="2" stroke-linecap="round"></path>
                </g>
                <path d="M301.523751,124.313266 C315.400297,138.78424 325.165286,146.958616 330.818717,148.836394" id="Path-377" stroke="#222222" stroke-width="2"></path>
                <path d="M401.790025,47.8538384 C409.411344,50.4393753 414.323298,56.4570525 416.525884,65.9068699" id="Path-378" stroke="#FFFFFF" stroke-width="1.10000002" stroke-linecap="round"></path>
                <path d="M418.067647,70.5255255 L418.067647,77.3127142" id="Path-396" stroke="#FFFFFF" stroke-width="1.10000002" stroke-linecap="round"></path>
                <path d="M353.036388,56.5388186 C357.142355,69.9136281 363.431707,78.1588012 371.904439,81.2743379 C380.377173,84.3898745 385.34692,88.4401766 386.813678,93.4252438 C386.858762,85.9039914 388.89033,83.4124667 392.90838,85.9506697 C398.935456,89.757974 400.830003,96.2204661 395.625184,100.355033 C392.155306,103.11141 391.254369,111.122038 392.922374,124.386917 C444.265529,118.025558 462.383883,148.808851 447.277439,216.736795 C461.518307,253.733308 510.135381,237.32737 528.474006,215.171209 C538.621572,175.698509 505.229688,192.004552 500.206401,153.642506 C496.989628,129.076528 470.650929,105.604597 440.119594,97.4939142 C387.207894,83.4378617 430.37528,72.2501843 407.484001,50.5088086 C384.592722,28.7674329 353.752695,35.889945 346.78063,46.2119685 C339.808563,56.5339919 336.602535,66.7798454 336.602535,72.0267909 C336.602535,77.2737362 343.159242,80.974898 346.791939,77.2774536 C349.213737,74.8124906 351.295221,67.8996123 353.036388,56.5388186 Z" id="Path-301" fill="#222222" fill-rule="nonzero" transform="translate(433.492332, 137.471250) rotate(9.000000) translate(-433.492332, -137.471250) "></path>
                <ellipse id="Oval" stroke="#222222" stroke-width="1.75999993" cx="371.171363" cy="75.5210554" rx="7.85341353" ry="10.4944959"></ellipse>
                <ellipse id="Oval" stroke="#222222" stroke-width="1.75999993" cx="348.248913" cy="75.5210554" rx="7.85341353" ry="10.4944959"></ellipse>
                <path d="M358.611887,73.9191198 C357.659754,82.092463 356.823234,86.7629391 356.102328,87.9305481 C355.381421,89.0981572 357.402801,89.6819616 362.166468,89.6819616" id="Path-398" stroke="#222222" stroke-width="1.4"></path>
                <path d="M351.603253,132.266862 C347.714737,142.216145 346.183551,147.739323 347.009696,148.836394 C348.248913,150.482001 349.777257,151.620939 360.327676,151.620939" id="Path-399" stroke="#222222" stroke-width="2"></path>
                <path d="M340.395501,217.860421 C361.031717,230.165118 388.104212,230.165118 421.612988,217.860421" id="Path-403" stroke="#222222" stroke-width="2.20000005"></path>
                <path d="M340.395501,237.832638 C358.53333,250.242801 385.605827,251.828257 421.612988,242.589006" id="Path-404" stroke="#222222" stroke-width="2.20000005"></path>
                <path d="M333.226588,262.681245 C356.544146,274.2679 388.462143,274.2679 428.980581,262.681245" id="Path-405" stroke="#222222" stroke-width="2.20000005"></path>
                <path d="M389.38766,143.755028 C411.826277,144.104995 421.386272,157.521503 418.067647,184.004553" id="Path-400" stroke="#222222" stroke-width="2.20000005"></path>
                <path d="M400.02684,132.721501 C426.449327,135.371238 438.971638,153.973566 437.593773,188.528483" id="Path-401" stroke="#222222" stroke-width="2" transform="translate(418.861525, 160.624992) rotate(5.000000) translate(-418.861525, -160.624992) "></path>
                <path d="M445.257756,106.308812 C464.738303,117.611439 477.857257,129.489802 484.61462,141.9439" id="Path-402" stroke="#FFFFFF" stroke-width="1.10000002"></path>
                <path d="M491.890204,163.92954 C488.561706,170.632083 488.561706,175.896635 491.890204,179.723196" id="Path-406" stroke="#FFFFFF" stroke-width="1.10000002"></path>
            </g>
        </g>
    </g>
</svg>