<?xml version="1.0" encoding="UTF-8"?>
<svg width="174px" height="44px" viewBox="0 0 174 44" version="1.1" xmlns="http://www.w3.org/2000/svg" xmlns:xlink="http://www.w3.org/1999/xlink">
    <!-- Generator: Sketch 64 (93537) - https://sketch.com -->
    <title>grofers-seeklogo.com copy</title>
    <desc>Created with Sketch.</desc>
    <defs>
        <polygon id="path-1" points="0 0.0133326508 40.4011325 0.0133326508 40.4011325 40.3944705 0 40.3944705"></polygon>
    </defs>
    <g id="Page-1" stroke="none" stroke-width="1" fill="none" fill-rule="evenodd">
        <g id="Artboard" transform="translate(-1899.000000, -429.000000)">
            <g id="grofers-seeklogo.com-copy" transform="translate(1899.000000, 429.000000)">
                <g id="Group-4" transform="translate(0.000000, 3.377575)">
                    <mask id="mask-2" fill="white">
                        <use xlink:href="#path-1"></use>
                    </mask>
                    <g id="Clip-2"></g>
                    <path d="M-0.0317227127,19.0013751 C0.136824894,17.9373065 0.273782243,16.8627742 0.495112735,15.8091695 C2.17019117,7.9393539 8.62824671,1.74468297 16.5928993,0.332922916 C27.4653127,-1.59501005 37.7793004,5.38981471 39.9916781,16.1567948 C42.2568388,27.1768281 34.8820697,38.0701692 23.8411087,40.0086322 C22.9772442,40.1561859 22.1133798,40.2720168 21.2389191,40.3984441 C20.5436022,40.3984441 19.8482192,40.3984441 19.1530348,40.3984441 C18.2891704,40.2720168 17.4146434,40.1667822 16.5612428,40.0086322 C8.62824671,38.6075347 2.15959486,32.3811411 0.495112735,24.5324519 C0.273782243,23.4789134 0.147354981,22.4043148 -0.0317227127,21.3402463 C-0.0317227127,20.5606888 -0.0317227127,19.781065 -0.0317227127,19.0013751 Z M27.0754346,13.7022251 C27.1070249,13.5442075 27.1597415,13.3755937 27.1808017,13.2070461 C27.3178253,12.0271466 27.3916683,10.8365846 27.60227,9.67767908 C27.718101,9.04554277 27.496903,8.87699516 26.9596037,8.71897764 C24.7471597,8.09743765 22.5137218,7.90782987 20.2275672,8.24492508 C12.9056472,9.31952369 9.13395576,15.5564474 10.0716633,21.9195997 C11.5254774,31.8333117 21.4707134,34.0879422 27.844462,30.8113635 C28.0552624,30.7061289 28.2659966,30.3584373 28.2659966,30.1161129 C28.2976531,26.9870878 28.2765267,23.8475989 28.2976531,20.7187063 C28.2976531,20.2130635 28.1183767,20.0864375 27.6548543,20.0970339 C26.590852,20.1182265 25.5267834,20.0970339 24.4627811,20.1076302 C23.2932793,20.1182265 23.3565923,19.9495464 23.3565923,21.1821626 C23.3565923,23.0259211 23.3565923,24.8696133 23.3565923,26.7131731 C23.3565923,27.0082142 23.3670561,27.2927252 22.9457202,27.3243155 C21.112558,27.4822668 19.3742328,27.2294785 17.8782321,26.0811693 C15.6130715,24.3321816 14.8018575,21.9513887 15.1390851,19.1804528 C15.4867104,16.3360712 16.9932413,14.3448252 19.7429845,13.3650636 C21.207395,12.8488907 22.7349198,12.8804147 24.2414506,13.0700888 C25.1685618,13.1964498 26.0851429,13.4808946 27.0754346,13.7022251 L27.0754346,13.7022251 Z" id="Fill-1" fill="#222222" mask="url(#mask-2)"></path>
                </g>
                <path d="M99.3364627,13.5293727 C105.573718,13.466126 109.302958,17.996381 109.355939,23.3377176 C109.418855,29.2480099 105.310134,33.4516336 99.7053469,33.5464044 C93.1945747,33.6621691 89.3388412,29.1426429 89.2962834,23.5273916 C89.2653293,17.6697496 93.4475616,13.5293727 99.3364627,13.5293727 Z M99.3159324,29.564045 C102.792185,29.564045 105.247219,27.0671562 105.247219,23.506199 C105.247219,19.9979583 102.781589,17.4484191 99.3682516,17.4378574 C95.9231253,17.4274914 93.4369653,19.9770306 93.4369653,23.5167953 C93.4369653,27.0461623 95.8814023,29.5535149 99.3159324,29.564045 L99.3159324,29.564045 Z" id="Fill-5" fill="#222222"></path>
                <path d="M85.8413956,33.525278 C84.3976479,33.525278 83.0598634,33.5462719 81.7326751,33.5042178 C81.5214111,33.4936877 81.2478938,33.2408332 81.1425929,33.0407616 C79.9730249,30.880968 78.8246494,28.7106444 77.7080629,26.5298569 C77.4444796,26.0137502 77.1391733,25.7923535 76.5702838,25.8556665 C76.1908033,25.8977206 75.8007265,25.8662628 75.3371378,25.8662628 C75.3371378,28.4472598 75.3371378,30.9546786 75.3371378,33.5358743 C74.0834615,33.5358743 72.8933631,33.5464044 71.7131987,33.525278 C71.6078979,33.525278 71.4602117,33.3567966 71.4184888,33.2408332 C71.3655072,33.0933458 71.3972961,32.9142019 71.3972961,32.7562506 C71.3972961,26.6247602 71.3972961,20.5037336 71.3972961,14.3721107 C71.3972961,13.5504329 71.3972961,13.5504329 72.1873837,13.5504329 C74.642417,13.5504329 77.1073844,13.5187764 79.5624177,13.571493 C82.1432823,13.6242097 84.1029379,15.1307405 84.8612366,17.5644488 C85.6725168,20.145512 84.8824292,22.9900923 82.8909846,24.4333764 C82.4068656,24.7915317 81.8273797,25.03379 81.2267012,25.3709514 C82.7439608,28.0258577 84.2711544,30.7228843 85.8413956,33.525278 Z M75.3166075,19.7557663 C75.3166075,20.3245897 75.3371378,20.9040093 75.3060112,21.4729651 C75.2848185,21.8838372 75.411312,22.0629149 75.8537081,22.0417885 C76.8543974,22.0102644 77.8550868,22.0417885 78.8670347,22.0313246 C80.1412413,22.0102644 80.9949068,21.083087 81.0160994,19.7556339 C81.0266958,18.4387771 80.162434,17.4800756 78.9087577,17.4378891 C77.8868757,17.406365 76.8649937,17.4484191 75.8431118,17.427359 C75.4325047,17.4168951 75.3060112,17.5854427 75.3272038,17.9751221 C75.3371378,18.5757344 75.3166075,19.1657504 75.3166075,19.7557663 L75.3166075,19.7557663 Z" id="Fill-6" fill="#222222"></path>
                <path d="M154.16245,25.3499574 C155.658516,28.01546 157.175114,30.7018903 158.7235,33.4620313 C158.523495,33.4936877 158.376471,33.525278 158.228785,33.525278 C157.101602,33.525278 155.974419,33.5146817 154.847236,33.5358743 C154.446563,33.5464044 154.225365,33.4198447 154.046552,33.0511592 C152.971689,30.9758713 151.83391,28.9424388 150.812028,26.8564883 C150.421951,26.0452743 149.937832,25.6975827 149.07357,25.8450702 C148.820583,25.8872568 148.557662,25.8767929 148.251694,25.8977206 C148.251694,28.4472598 148.251694,30.9442148 148.251694,33.525278 C146.998017,33.525278 145.807919,33.5358743 144.606562,33.5146817 C144.511857,33.5146817 144.374767,33.3567966 144.342979,33.2512971 C144.301256,33.0828157 144.311852,32.8826778 144.311852,32.7036001 C144.311852,26.6037 144.311852,20.4931373 144.311852,14.3933034 C144.311852,13.539969 144.311852,13.539969 145.144325,13.539969 C147.577503,13.539969 150.02194,13.5082463 152.455119,13.5505653 C155.047242,13.5926194 156.996301,15.0780239 157.786389,17.501202 C158.618861,20.0718014 157.838708,22.9162492 155.869118,24.3805935 C155.363144,24.7493452 154.773062,25.0127298 154.16245,25.3499574 Z M148.241097,22.0419209 C149.515966,22.0419209 150.685534,22.0629149 151.844506,22.0313246 C153.045201,21.9996681 153.867077,21.1147435 153.920059,19.8188806 C153.972378,18.5757344 153.171694,17.5327261 151.992192,17.4590155 C150.874943,17.3957687 149.737164,17.4274914 148.620578,17.4484191 C148.494084,17.4484191 148.251694,17.6697496 148.251694,17.7856468 C148.230501,19.1867443 148.241097,20.5669803 148.241097,22.0419209 L148.241097,22.0419209 Z" id="Fill-7" fill="#222222"></path>
                <path d="M61.8312757,23.5378554 C63.1269399,23.5378554 64.3071043,23.5273916 65.4976001,23.5589156 C65.6133648,23.5589156 65.8241652,23.80124 65.8241652,23.9382636 C65.8451591,26.6247602 65.8451591,29.3005941 65.8241652,31.9871569 C65.8241652,32.1557707 65.644955,32.3980952 65.4870038,32.4822696 C60.2089139,35.2108865 52.0650512,33.3357364 50.6849476,25.4657884 C49.9685706,21.3886582 51.0746933,17.8172371 54.5303497,15.3203483 C57.690965,13.03426 61.2517898,12.8867063 64.9074516,13.9612387 C65.0655354,14.0035577 65.2446131,14.351183 65.2236854,14.5513871 C65.1287821,15.6891662 64.9812947,16.8269454 64.8548012,17.933068 C63.8329855,17.7435927 62.8531577,17.4800756 61.8522696,17.3851724 C59.3870374,17.1639744 57.1956536,17.7539241 55.7208455,19.9242477 C53.4662811,23.2428143 54.8673787,28.0681105 58.4703901,29.3111905 C59.3344532,29.6061653 60.3141486,29.5746413 61.241326,29.6692796 C61.6836558,29.7115324 61.8416733,29.4798043 61.8416733,29.0372095 C61.8206794,27.4780283 61.8312757,25.9189132 61.8312757,24.3701958 C61.8312757,24.1172089 61.8312757,23.8749507 61.8312757,23.5378554" id="Fill-8" fill="#222222"></path>
                <path d="M139.381255,33.5042178 C135.914936,33.5042178 132.543984,33.5042178 129.088261,33.5042178 C129.077665,33.2935499 129.045876,33.0828157 129.045876,32.8720815 C129.045876,26.7090008 129.045876,20.5457877 129.045876,14.3827071 C129.045876,13.539969 129.045876,13.539969 129.888945,13.539969 C132.670477,13.539969 135.461944,13.539969 138.243476,13.539969 C138.464674,13.539969 138.685872,13.539969 138.960051,13.539969 C138.960051,14.8462295 138.960051,16.1000383 138.960051,17.4484191 C138.33818,17.4484191 137.737502,17.4484191 137.126889,17.4484191 C135.914936,17.4484191 134.714241,17.4484191 133.502288,17.4484191 C133.228771,17.4484191 132.965187,17.4378891 132.975784,17.8383635 C132.98638,19.0392569 132.975784,20.2509453 132.975784,21.5362119 C134.735434,21.5362119 136.462633,21.5362119 138.222283,21.5362119 C138.222283,22.884659 138.222283,24.1384677 138.222283,25.4974449 C136.494422,25.4974449 134.76656,25.4974449 133.007572,25.4974449 C133.007572,26.8985424 133.007572,28.1945377 133.007572,29.5535149 C133.28109,29.5746413 133.544673,29.5956352 133.79766,29.5956352 C135.440751,29.5956352 137.073908,29.6167616 138.717661,29.5850389 C139.222972,29.5746413 139.402447,29.7220625 139.381255,30.2382354 C139.349466,31.312834 139.381255,32.3769026 139.381255,33.5042178" id="Fill-9" fill="#222222"></path>
                <path d="M172.577517,14.2141594 C172.409301,15.4889622 172.251018,16.689988 172.082802,17.9120741 C171.186751,17.6908098 170.333748,17.4274914 169.459552,17.2693415 C168.921789,17.1639744 168.3529,17.1639744 167.805203,17.1956971 C166.867429,17.2588776 166.235624,17.8592912 166.00383,18.7758723 C165.793228,19.618809 166.087938,20.3984327 166.878025,20.8829492 C167.310487,21.1463338 167.805203,21.3044837 168.258195,21.5362119 C169.322462,22.0629149 170.428453,22.5054434 171.419208,23.1480436 C173.536484,24.5282134 174.389487,26.5089292 173.894772,29.0268119 C173.441779,31.312834 171.62981,33.0828157 169.24895,33.5358743 C166.720405,34.020457 164.32895,33.5042178 162.032199,32.4296192 C161.884513,32.3559748 161.7057,32.1345781 161.715634,31.997687 C161.842128,30.7545408 162.011006,29.5219909 162.179223,28.1839414 C162.43221,28.3314289 162.611685,28.4367297 162.801094,28.5315667 C164.434251,29.4270876 166.172046,29.8695499 168.047593,29.6692796 C169.058879,29.564045 169.807244,28.9213786 169.986056,28.0574479 C170.154935,27.2251738 169.701281,26.3823695 168.774765,25.9293109 C168.026401,25.5604929 167.215121,25.3183672 166.456822,24.9601456 C165.70912,24.5915263 164.950159,24.2121121 164.265372,23.7275957 C162.29512,22.3474921 161.589803,20.4088304 162.095114,18.0806217 C162.590492,15.7628106 163.980596,14.1826354 166.287943,13.571493 C168.447604,13.0130673 170.513223,13.4873186 172.577517,14.2141594" id="Fill-11" fill="#222222"></path>
                <path d="M118.563473,33.5042178 C117.215092,33.5042178 115.972012,33.5042178 114.665354,33.5042178 C114.665354,26.8775485 114.665354,20.2614754 114.665354,13.571493 C114.86536,13.560963 115.086558,13.5293727 115.297822,13.5293727 C118.14227,13.5293727 120.986717,13.539969 123.841762,13.5187764 C124.421247,13.5082463 124.589464,13.6978541 124.568934,14.2562798 C124.526548,15.0991503 124.526548,15.9418883 124.568934,16.7742287 C124.60006,17.3325882 124.389458,17.4696118 123.862954,17.4590155 C122.345695,17.4274914 120.828435,17.4484191 119.311838,17.4484191 C119.09064,17.4484191 118.868779,17.4484191 118.595262,17.4484191 C118.595262,18.839119 118.595262,20.1561083 118.595262,21.5466095 C120.259545,21.5466095 121.913895,21.5466095 123.641756,21.5466095 C123.641756,22.8110146 123.652352,24.0119742 123.620564,25.2130001 C123.620564,25.3183672 123.283468,25.5080412 123.094059,25.5080412 C121.829787,25.5395652 120.554918,25.5185051 119.280049,25.5185051 C119.058851,25.5185051 118.837653,25.5185051 118.552877,25.5185051 C118.563473,28.205134 118.563473,30.8177213 118.563473,33.5042178" id="Fill-13" fill="#222222"></path>
                <path d="M40.4130803,6.61825855 C38.5589241,6.61825855 37.136634,5.16437815 37.136634,3.28909562 C37.1472303,1.48765615 38.6221709,0.0337757484 40.4342067,0.0337757484 C42.2673688,0.0441733807 43.7212492,1.51924641 43.7107105,3.37333631 C43.7001228,5.18550455 42.2462424,6.61825855 40.4130803,6.61825855" id="Fill-14" fill="#222222"></path>
            </g>
        </g>
    </g>
</svg>