<?xml version="1.0" encoding="UTF-8"?>
<svg width="194px" height="54px" viewBox="0 0 194 54" version="1.1" xmlns="http://www.w3.org/2000/svg" xmlns:xlink="http://www.w3.org/1999/xlink">
    <!-- Generator: Sketch 55.1 (78136) - https://sketchapp.com -->
    <title>Group 20@1x</title>
    <desc>Created with Sketch.</desc>
    <g id="Page-1" stroke="none" stroke-width="1" fill="none" fill-rule="evenodd">
        <g id="Artboard-Copy" transform="translate(-39.000000, -39.000000)">
            <g id="Group-20" transform="translate(39.000000, 39.000000)">
                <g id="Group-5" transform="translate(60.000000, 2.000000)" fill="#111042" fill-rule="nonzero">
                    <g id="Group-6">
                        <path d="M14.992,18.112 C12.8479893,18.112 11.2480053,18.8719924 10.192,20.392 C9.13599472,21.9120076 8.608,23.9199875 8.608,26.416 L8.608,37.6 L1.408,37.6 L1.408,11.776 L8.608,11.776 L8.608,15.184 C9.53600464,14.1279947 10.695993,13.2320037 12.088,12.496 C13.480007,11.7599963 14.8959928,11.3760002 16.336,11.344 L16.384,18.112 L14.992,18.112 Z M43.504,33.856 C40.5919854,36.6080138 37.1760196,37.984 33.256,37.984 C29.3359804,37.984 26.0960128,36.7760121 23.536,34.36 C20.9759872,31.9439879 19.696,28.7040203 19.696,24.64 C19.696,20.5759797 20.999987,17.344 23.608,14.944 C26.216013,12.543988 29.2959822,11.344 32.848,11.344 C36.4000178,11.344 39.4159876,12.4159893 41.896,14.56 C44.3760124,16.7040107 45.616,19.6479813 45.616,23.392 L45.616,27.232 L26.8,27.232 C27.0240011,28.640007 27.7599938,29.7919955 29.008,30.688 C30.2560062,31.5840045 31.6639922,32.032 33.232,32.032 C35.7600126,32.032 37.8399918,31.1840085 39.472,29.488 L43.504,33.856 Z M38.32,22.096 C38.1599992,20.5599923 37.584005,19.3760042 36.592,18.544 C35.599995,17.7119958 34.3920071,17.296 32.968,17.296 C31.5439929,17.296 30.2400059,17.7279957 29.056,18.592 C27.8719941,19.4560043 27.184001,20.6239926 26.992,22.096 L38.32,22.096 Z M63.184,31.6 C65.584012,31.6 67.7439904,30.400012 69.664,28 L73.936,32.8 C70.6079834,36.2560173 67.0080194,37.984 63.136,37.984 C59.2639806,37.984 55.9920134,36.7600122 53.32,34.312 C50.6479866,31.8639878 49.312,28.6640198 49.312,24.712 C49.312,20.7599802 50.6639865,17.5440124 53.368,15.064 C56.0720135,12.5839876 59.2799814,11.344 62.992,11.344 C64.8480093,11.344 66.7279905,11.7279962 68.632,12.496 C70.5360095,13.2640038 72.2079928,14.3999925 73.648,15.904 L69.904,20.8 C69.0719958,19.807995 68.056006,19.0400027 66.856,18.496 C65.655994,17.9519973 64.4640059,17.68 63.28,17.68 C61.3919906,17.68 59.7680068,18.2959938 58.408,19.528 C57.0479932,20.7600062 56.368,22.471989 56.368,24.664 C56.368,26.856011 57.0479932,28.5599939 58.408,29.776 C59.7680068,30.9920061 61.3599909,31.6 63.184,31.6 Z M85.936,37.6 L78.736,37.6 L78.736,1.984 L85.936,1.984 L85.936,20.272 L93.952,11.728 L103.024,11.728 L93.184,22.192 L103.408,37.6 L94.864,37.6 L88.288,27.712 L85.936,30.16 L85.936,37.6 Z M113.056,24.688 C113.056,26.8000106 113.655994,28.5199934 114.856,29.848 C116.056,31.1760066 117.591991,31.84 119.464,31.84 C121.336009,31.84 122.871994,31.1760066 124.072,29.848 C125.272006,28.5199934 125.872,26.8000106 125.872,24.688 C125.872,22.5759894 125.272006,20.8480067 124.072,19.504 C122.871994,18.1599933 121.336009,17.488 119.464,17.488 C117.591991,17.488 116.056,18.1599933 114.856,19.504 C113.655994,20.8480067 113.056,22.5759894 113.056,24.688 Z M133.12,24.688 C133.12,28.4320187 131.824013,31.5839872 129.232,34.144 C126.639987,36.7040128 123.38402,37.984 119.464,37.984 C115.54398,37.984 112.288013,36.7040128 109.696,34.144 C107.103987,31.5839872 105.808,28.4320187 105.808,24.688 C105.808,20.9439813 107.103987,17.7840129 109.696,15.208 C112.288013,12.6319871 115.54398,11.344 119.464,11.344 C123.38402,11.344 126.639987,12.6319871 129.232,15.208 C131.824013,17.7840129 133.12,20.9439813 133.12,24.688 Z" id="recko"></path>
                    </g>
                </g>
                <g id="Group-2-Copy-3">
                    <g id="Group-2-Copy-2">
                        <path d="M11.4102543,21.2994234 C14.9143387,21.3542562 17.9682422,20.1065932 20.5719648,17.5564344 C23.1756874,15.0061968 24.5326613,11.9316945 24.6428864,8.3328487 L24.6428864,0.0403159091 L35.9581387,0.0403159091 L35.9581387,8.3328487 C35.9581387,14.4818532 33.7138281,20.0271448 29.225207,24.9687234 C24.7365859,29.9103019 18.7982683,32.4522555 11.4102543,32.5945841 L0.00626834171,32.5945841 L0.00626834171,21.381712 L11.4102543,21.2994234 Z" id="Clip-124" fill="#F73547"></path>
                        <path d="M11.397392,32.6769516 L0.00626834171,32.5945841 L0.00626834171,21.3729545 L11.397392,21.3729545 C18.7770211,21.515362 24.7086633,24.0593669 29.1921558,29.0047325 C33.6757296,33.9501769 35.9175166,39.4998078 35.9175166,45.653625 L35.9175166,53.9527062 L24.6150452,53.9527062 L24.6150452,45.653625 C24.5049015,42.0520179 23.1494744,38.9750698 20.5487638,36.4228597 C17.9479719,33.8706497 14.8974874,32.6220399 11.397392,32.6769516 Z" id="Clip-127" fill="#02ADFF"></path>
                        <path d="M18.3917216,0 L18.3917216,7.99122857 C18.3879769,8.65379805 18.3603799,9.14681981 18.3090935,9.47021494 C18.1178683,10.6758263 17.5870945,11.8218711 16.6516462,12.8884675 C15.3368412,14.3473354 13.6434935,15.0992153 11.5716844,15.1440282 L1.77635684e-15,15.1440282 L1.77635684e-15,0 L18.3917216,0 Z" id="Clip-130" fill="#FFCB51"></path>
                        <path d="M0.00626834171,21.3729545 L11.4471317,21.3729545 C14.6448,21.4116925 17.5758603,21.9344581 20.2402312,22.9412513 C22.9906492,23.9785773 25.2912935,25.331251 27.1422452,26.9993513 C25.0976261,28.7364857 22.9026482,30.0389815 20.5572302,30.9067597 C18.2599236,31.9145786 15.2232784,32.4771867 11.4471317,32.5945841 L0.00626834171,32.5945841 L0.00626834171,21.3729545 Z" id="Clip-133" fill="#06006F" opacity="0.695614769"></path>
                    </g>
                </g>
            </g>
        </g>
    </g>
</svg>