<?xml version="1.0" encoding="UTF-8"?>
<svg width="36px" height="54px" viewBox="0 0 36 54" version="1.1" xmlns="http://www.w3.org/2000/svg" xmlns:xlink="http://www.w3.org/1999/xlink">
    <!-- Generator: Sketch 55.1 (78136) - https://sketchapp.com -->
    <title>Group 20@1x</title>
    <desc>Created with Sketch.</desc>
    <g id="Page-1" stroke="none" stroke-width="1" fill="none" fill-rule="evenodd">
        <g id="Artboard-Copy-2" transform="translate(-53.000000, -39.000000)">
            <g id="Group-20" transform="translate(53.000000, 39.000000)">
                <g id="Group-2-Copy-3">
                    <g id="Group-2-Copy-2">
                        <path d="M11.4102543,21.2994234 C14.9143387,21.3542562 17.9682422,20.1065932 20.5719648,17.5564344 C23.1756874,15.0061968 24.5326613,11.9316945 24.6428864,8.3328487 L24.6428864,0.0403159091 L35.9581387,0.0403159091 L35.9581387,8.3328487 C35.9581387,14.4818532 33.7138281,20.0271448 29.225207,24.9687234 C24.7365859,29.9103019 18.7982683,32.4522555 11.4102543,32.5945841 L0.00626834171,32.5945841 L0.00626834171,21.381712 L11.4102543,21.2994234 Z" id="Clip-124" fill="#F73547"></path>
                        <path d="M11.397392,32.6769516 L0.00626834171,32.5945841 L0.00626834171,21.3729545 L11.397392,21.3729545 C18.7770211,21.515362 24.7086633,24.0593669 29.1921558,29.0047325 C33.6757296,33.9501769 35.9175166,39.4998078 35.9175166,45.653625 L35.9175166,53.9527062 L24.6150452,53.9527062 L24.6150452,45.653625 C24.5049015,42.0520179 23.1494744,38.9750698 20.5487638,36.4228597 C17.9479719,33.8706497 14.8974874,32.6220399 11.397392,32.6769516 Z" id="Clip-127" fill="#02ADFF"></path>
                        <path d="M18.3917216,0 L18.3917216,7.99122857 C18.3879769,8.65379805 18.3603799,9.14681981 18.3090935,9.47021494 C18.1178683,10.6758263 17.5870945,11.8218711 16.6516462,12.8884675 C15.3368412,14.3473354 13.6434935,15.0992153 11.5716844,15.1440282 L1.77635684e-15,15.1440282 L1.77635684e-15,0 L18.3917216,0 Z" id="Clip-130" fill="#FFCB51"></path>
                        <path d="M0.00626834171,21.3729545 L11.4471317,21.3729545 C14.6448,21.4116925 17.5758603,21.9344581 20.2402312,22.9412513 C22.9906492,23.9785773 25.2912935,25.331251 27.1422452,26.9993513 C25.0976261,28.7364857 22.9026482,30.0389815 20.5572302,30.9067597 C18.2599236,31.9145786 15.2232784,32.4771867 11.4471317,32.5945841 L0.00626834171,32.5945841 L0.00626834171,21.3729545 Z" id="Clip-133" fill="#06006F" opacity="0.695614769"></path>
                    </g>
                </g>
            </g>
        </g>
    </g>
</svg>