<?xml version="1.0" encoding="UTF-8"?>
<svg width="500px" height="450px" viewBox="0 0 500 450" version="1.1" xmlns="http://www.w3.org/2000/svg" xmlns:xlink="http://www.w3.org/1999/xlink">
    <!-- Generator: Sketch 55.2 (78181) - https://sketchapp.com -->
    <title>transactions in mins</title>
    <desc>Created with Sketch.</desc>
    <defs>
        <linearGradient x1="28.5019597%" y1="0%" x2="64.7486109%" y2="76.3689027%" id="linearGradient-1">
            <stop stop-color="#00FFBF" stop-opacity="0.0536494755" offset="0%"></stop>
            <stop stop-color="#49FDD0" offset="100%"></stop>
        </linearGradient>
        <linearGradient x1="32.0308461%" y1="0%" x2="62.327638%" y2="76.3689027%" id="linearGradient-2">
            <stop stop-color="#00FFBF" stop-opacity="0.0536494755" offset="0%"></stop>
            <stop stop-color="#49FDD0" offset="100%"></stop>
        </linearGradient>
        <linearGradient x1="5.0968403%" y1="0%" x2="262.215292%" y2="304.936971%" id="linearGradient-3">
            <stop stop-color="#00FFBF" stop-opacity="0.0536494755" offset="0%"></stop>
            <stop stop-color="#00FFE1" offset="100%"></stop>
        </linearGradient>
        <linearGradient x1="49.755763%" y1="0%" x2="50.244237%" y2="70.6009533%" id="linearGradient-4">
            <stop stop-color="#00FFBF" stop-opacity="0.0536494755" offset="0%"></stop>
            <stop stop-color="#00FFBF" offset="100%"></stop>
        </linearGradient>
        <linearGradient x1="49.467321%" y1="0%" x2="50.3654415%" y2="76.3689027%" id="linearGradient-5">
            <stop stop-color="#00FFBF" stop-opacity="0.0536494755" offset="0%"></stop>
            <stop stop-color="#00FFBF" offset="100%"></stop>
        </linearGradient>
        <linearGradient x1="43.7822997%" y1="0%" x2="52.6685689%" y2="62.1059135%" id="linearGradient-6">
            <stop stop-color="#00FFBF" stop-opacity="0.0536494755" offset="0%"></stop>
            <stop stop-color="#00FFBF" offset="100%"></stop>
        </linearGradient>
        <linearGradient x1="42.0422455%" y1="0%" x2="55.5721434%" y2="76.9068248%" id="linearGradient-7">
            <stop stop-color="#00FFBF" stop-opacity="0.0536494755" offset="0%"></stop>
            <stop stop-color="#00FFBF" offset="100%"></stop>
        </linearGradient>
        <linearGradient x1="42.0934326%" y1="0%" x2="55.4242565%" y2="76.3689027%" id="linearGradient-8">
            <stop stop-color="#00FFBF" stop-opacity="0.0536494755" offset="0%"></stop>
            <stop stop-color="#49FDD0" offset="100%"></stop>
        </linearGradient>
    </defs>
    <g id="transactions-in-mins" stroke="none" stroke-width="1" fill="none" fill-rule="evenodd">
        <g id="Group-4" transform="translate(20.000000, 44.000000)">
            <g id="Group-3" transform="translate(0.000000, 123.133739)">
                <path d="M221.51386,218.720708 C185.616883,196.961368 147.672853,168.393136 155.095392,181.134642 C164.987534,189.426713 149.167625,155.473975 140.544332,141.010873 C134.026691,131.133395 124.320429,121.895364 112.072189,107.002201 M64.8089185,105.060804 C46.5969202,99.0697709 33.9346727,99.8969847 21.3500616,133.995739 C19.0170839,140.317082 16.759286,144.182769 14.7576859,151.217857 C14.3940681,152.495876 21.6956843,156.928658 21.3500616,158.21561 C13.3354804,188.058514 3.8852831,210.67416 19.6625954,216.082972" id="Shape" stroke="#222222" stroke-width="2.20000005"></path>
                <path d="M15.4968967,152.335443 C37.5601499,156.596781 48.5917764,160.823891 48.5917764,165.016772 C48.5917764,169.209653 47.4424882,179.202843 45.1439116,194.996342 C62.1929124,198.927042 74.099881,201.716904 80.8648173,203.365928 C97.7157602,207.36355 109.415847,208.199444 114.184341,211.020009 C121.778509,215.511959 130.78562,217.199614 141.205674,216.082972 C131.147295,198.355973 125.493104,184.726154 124.243101,175.193513 C135.878478,174.641732 143.918193,158.809744 132.024608,146.067278 C132.444411,144.207619 133.071738,144.540953 133.906589,147.067278 C142.264242,139.380899 146.371762,135.386926 146.229149,135.085358 C132.87362,111.928401 119.681241,104.652423 105.084877,104.652423 C94.2491677,104.652423 114.804078,114.70698 96.7679393,120.873607 C74.1339329,123.976037 71.69786,108.250818 69.1278775,105.752727 C64.1616339,100.925405 43.8856507,101.600932 36.9410654,107.002201 C27.1001742,119.830707 19.9521179,134.941788 15.4968967,152.335443 Z" id="Path-228" fill="#222222"></path>
                <path d="M50.7592333,167.688407 C47.4231235,191.142871 44.0395544,202.870104 40.6085261,202.870104 C35.4619836,202.870104 33.4770313,197.87986 38.7713334,197.87986 C41.7600201,197.87986 60.7672453,201.224849 80.8648173,207.132938 C100.962389,213.041026 123.141277,214.653412 128.877523,223.187417 C130.369761,225.40747 128.057487,227.780143 126.285654,227.322532" id="Path-186" stroke="#222222" stroke-width="2.20000005"></path>
                <path d="M112.771636,221.09675 C123.4061,224.300563 128.877523,227.579736 128.877523,231.550372 C128.877523,234.197462 127.408182,235.039526 124.469498,234.076564" id="Path-187" stroke="#222222" stroke-width="2.20000005"></path>
                <path d="M94.2576188,200.559627 C110.295408,203.394983 122.638086,201.177143 131.285654,193.906106" id="Path-193" stroke="#FFFFFF" stroke-width="2.20000005"></path>
                <path d="M109.808077,224.69409 C119.359002,228.817205 124.134464,232.073129 124.134464,234.461862 C124.134464,236.850594 122.247212,237.543144 118.472709,236.53951" id="Path-187-Copy" stroke="#222222" stroke-width="2.20000005"></path>
                <path d="M105.962389,229.35768 C114.302602,232.024779 118.472709,234.697865 118.472709,237.376938 C118.472709,240.056012 113.946839,238.940202 104.8951,234.02951 C102.857377,234.689743 100.406265,235.01986 97.5417638,235.01986 C93.2450125,235.01986 84.4317294,228.689674 83.24605,227.379709 C82.0603706,226.069745 30.8502386,223.181265 17.6625954,215.082972" id="Path-187-Copy-2" stroke="#222222" stroke-width="2.20000005"></path>
                <path d="M38.7713334,114.559609 C77.4045253,130.582074 104.882733,130.582074 121.205957,114.559609" id="Path-188" stroke="#FFFFFF" stroke-width="2.20000005"></path>
                <path d="M32.229584,126.576458 C69.7726426,146.600191 101.791332,146.600191 128.285654,126.576458" id="Path-189" stroke="#FFFFFF" stroke-width="2.20000005"></path>
                <path d="M28.6239386,139.150857 C82.017126,159.758003 119.902928,158.069504 142.281345,134.085358" id="Path-190" stroke="#FFFFFF" stroke-width="2.20000005"></path>
                <path d="M54.8499325,164.713261 C81.5410381,175.801838 107.893257,174.300306 133.906589,160.208667" id="Path-191" stroke="#FFFFFF" stroke-width="2.20000005"></path>
                <path d="M51.1962667,183.443118 C89.8019673,192.851722 116.230104,192.082229 130.480677,181.134642" id="Path-192" stroke="#FFFFFF" stroke-width="2.20000005"></path>
                <path d="M131.719253,144.393367 C140.025884,155.944159 140.209066,165.158987 132.268797,172.037853" id="Path-195" stroke="#222222" stroke-width="2.20000005"></path>
                <g id="Group" transform="translate(68.723560, 61.086808) rotate(17.000000) translate(-68.723560, -61.086808) translate(11.223560, 15.086808)">
                    <path d="M95.8802363,91.0697221 C91.1760289,78.834751 90.5506205,70.799257 94.004011,66.9632402 C99.1840969,61.209215 111.114932,59.8455522 113.470792,53.1796719 C116.673066,46.3901968 112.816634,23.8149173 102.923259,14.1278304" id="Path-196" stroke="#222222" stroke-width="2.20000005"></path>
                    <path d="M99.1840969,28.8163875 C105.07047,36.6574123 107.210102,41.4973903 105.602993,43.3363216 C104.034871,44.6865979 102.289927,44.9411129 100.368158,44.0998666" id="Path-198" stroke="#222222" stroke-width="2.20000005"></path>
                    <path d="M91.8111033,47.7383604 C94.1880702,51.7536194 98.957703,52.1084554 106.120002,48.8028685" id="Path-199" stroke="#222222" stroke-width="2.20000005"></path>
                    <path d="M85.0783923,28.8163875 C86.7158562,26.2205708 88.2473407,24.9226624 89.6728458,24.9226624" id="Path-200" stroke="#222222" stroke-width="2.20000005"></path>
                    <path d="M98.9655526,22.135775 C101.551205,21.2890033 103.24529,21.2890033 104.04781,22.135775" id="Path-201" stroke="#222222" stroke-width="2.20000005"></path>
                    <ellipse id="Oval" fill="#222222" transform="translate(91.021294, 34.475829) rotate(-28.000000) translate(-91.021294, -34.475829) " cx="91.021294" cy="34.4758295" rx="1.64927135" ry="2.20016138"></ellipse>
                    <ellipse id="Oval-Copy" fill="#222222" transform="translate(104.212783, 27.874006) rotate(-28.000000) translate(-104.212783, -27.874006) " cx="104.212783" cy="27.8740057" rx="1.64927135" ry="2.20016138"></ellipse>
                    <path d="M103.191844,11.6419526 C90.3611739,13.6554252 82.9490723,16.8641356 80.9555398,21.2680837 C77.9652409,27.8740057 81.4482301,35.6045221 77.3307469,35.6045221 C73.2132637,35.6045221 66.4615436,33.1205097 65.4269975,37.193693 C64.3924514,41.2668764 64.4136702,44.4713397 70.0749508,48.535058 C75.7362314,52.5987763 68.4260944,59.5858007 64.7019354,56.0922885 C60.9777764,52.5987763 38.5013694,31.8779667 57.9160581,12.8970879 C77.3307469,-6.08379086 98.9655526,0.209498164 101.506681,4.8275467 C103.82629,7.57299339 104.388011,9.84446201 103.191844,11.6419526 Z" id="Path-202" stroke="#222222" stroke-width="2.20000005" fill="#222222"></path>
                    <path d="M50.9237205,11.9129441 C34.7819003,12.9744341 28.3723668,19.7691642 31.6951201,32.2971344 C36.67925,51.0890898 36.1281257,66.9555125 21.7411442,66.9617168 C7.35416261,66.9679191 -4.22506135,38.6666951 7.36933811,24.0859224 C15.0989378,14.3654072 29.6170652,10.3077478 50.9237205,11.9129441 Z" id="Path-203" stroke="#222222" stroke-width="2.20000005" fill="#222222" transform="translate(26.777580, 39.266702) rotate(4.000000) translate(-26.777580, -39.266702) "></path>
                </g>
                <path d="M125.719253,175.550363 C132.176121,187.869145 137.680616,195.978977 142.232738,199.87986 C158.296685,213.645656 175.157064,217.657569 177.356944,218.416449" id="Path-197" stroke="#222222" stroke-width="2.20000005"></path>
                <path d="M77.7645949,25.7405408 C89.7333058,15.204106 92.3138495,9.93588861 85.5062262,9.93588861 C78.6986028,9.93588861 76.1180591,15.204106 77.7645949,25.7405408 Z" id="Path-204" stroke="#00FFBF" stroke-width="1.10000002"></path>
                <path d="M66.7649102,25.7357583 C78.746355,15.2028148 81.3307314,9.93757886 74.5180394,9.94005039 C67.7053475,9.94252308 65.1209711,15.207759 66.7649102,25.7357583 Z" id="Path-204" stroke="#00FFBF" stroke-width="1.10000002" transform="translate(72.253944, 17.837904) rotate(-64.000000) translate(-72.253944, -17.837904) "></path>
            </g>
            <g id="Group-2" transform="translate(141.205674, 201.355623)" stroke="#222222" stroke-width="2.4200001">
                <path d="M0.557804446,140.591317 L285.261707,140.591317 C288.91129,140.591317 291.869861,143.549888 291.869861,147.199471 C291.869861,150.849054 288.91129,153.807625 285.261707,153.807625 L248.01348,153.807625" id="Path-132"></path>
                <path d="M141.309607,0 L130.048709,0 C127.428106,0 125.105435,1.68861736 124.295134,4.1829384 C121.690017,10.6791944 119.937297,15.4240329 119.036972,18.4174541 C113.76041,35.9611037 108.535683,57.6164306 105.362789,67.3834349 C101.396129,79.5938617 95.779473,95.2428353 88.5128202,114.330356 C87.4796606,117.510694 89.2180827,120.927127 92.3956945,121.961173 C92.9998289,122.157768 93.6311302,122.257905 94.2663953,122.257905 L102.48422,122.257905" id="Path-133"></path>
                <path d="M286.148572,37.3028339 C288.521789,31.1481769 290.135035,26.6988508 290.98831,23.9548557 C292.169974,20.1548142 293.609137,14.7880852 295.305798,7.85466877 C296.298741,4.66152413 294.517344,1.26733911 291.326937,0.273544335 C290.744836,0.0922230173 290.138696,0 289.529054,0 L138.518784,0 C135.898181,0 133.57551,1.68861736 132.765209,4.1829384 C129.930602,12.9086077 129.412284,17.660656 127.210255,24.4390834 C124.478594,32.8478591 120.233666,42.7583391 118.475473,48.1705233 M107.771764,81.1193661 C106.641119,84.5997919 105.087628,91.3818472 103.111292,97.4655319 C101.38945,102.765817 99.3466507,107.054091 96.9828952,114.330356 C95.9497356,117.510694 97.6881577,120.927127 100.865769,121.961173 C101.469904,122.157768 102.101205,122.257905 102.73647,122.257905 C113.91944,122.257905 125.232031,121.257905 134.674243,121.257905 C163.055901,121.257905 182.573686,122.257905 195.2276,122.257905 M237.133957,122.257905 C241.16586,122.257905 247.213716,122.257905 255.277523,122.257905 C257.926316,122.257905 260.26713,120.53339 261.054266,118.002086 C263.236157,111.559035 264.675667,106.924391 265.372796,104.098153 C267.655414,94.8441715 268.649833,87.4737144 270.356054,81.9867822 C271.304488,78.9367705 274.969286,69.1854535 281.350448,52.7328313" id="Shape"></path>
                <path d="M114.762158,133.265662 L211.579313,133.265662" id="Path-135"></path>
                <path d="M203.757805,78.1015719 C207.425961,78.1027748 210.24705,74.375266 212.219248,70.0504306 C213.481229,67.2830318 214.645204,64.8062727 214.64401,61.1530602 C214.641775,54.3627749 212.497372,49.4104179 208.792168,46.7030963 C207.388672,45.6775891 205.39925,44.1979354 203.746672,44.1973911 C197.731316,44.1954174 192.857399,51.7835234 192.860463,61.145903 C192.863548,70.5082826 197.742449,78.099593 203.757805,78.1015719 Z" id="Oval" transform="translate(203.752237, 61.149481) rotate(25.000000) translate(-203.752237, -61.149481) "></path>
            </g>
            <g id="Group-3" transform="translate(235.744681, 0.000000)">
                <path d="M10.4793384,74.6714027 C10.6930446,74.5599541 8.59041816,71.3438546 9.20294526,71.0335171 C9.70277768,70.7802766 11.8404361,74.3879911 14.1517379,74.1347499 C15.9150242,73.9819607 14.0615862,71.8144646 15.1637235,71.4239909 C16.2658607,71.0335171 17.0550534,73.4128321 18.3703728,73.4089236 C23.5691755,73.3934752 42.7228305,73.3934752 75.8313377,73.4089236 C89.9150623,91.408995 96.9569245,114.426011 96.9569245,142.45997 L31.7832325,142.45997 C26.7508564,114.869649 19.6495583,92.2734593 10.4793384,74.6714027 Z" id="Rectangle" fill="#00FFBF" opacity="0.699999988"></path>
                <path d="M197.403715,112.42969 C204.616816,112.303784 210.026642,112.209356 213.633192,112.146403 C214.987819,112.122758 213.584583,109.361577 214.374224,108.925839 C215.163864,108.490102 215.527886,111.292419 216.807733,111.863131 C217.178371,112.028407 217.047309,112.086809 217.72499,112.07498 C219.666727,112.041087 218.514644,107.56451 218.98324,107.539653 C219.278614,107.524141 219.977519,109.016397 221.079956,112.016419 C225.141996,128.687655 224.066891,148.628969 217.854639,171.840364 C205.368319,172.260868 196.800018,172.410428 192.149737,172.289045 C199.958333,151.736416 201.709659,131.783298 197.403715,112.42969 Z" id="Rectangle-Copy-3" fill="#00FFBF" transform="translate(207.819321, 139.934741) rotate(1.000000) translate(-207.819321, -139.934741) "></path>
                <path d="M99.9790144,79.0482492 C136.726215,79.433061 155.38585,78.0680895 176.86081,79.0482492 C182.739925,98.2903575 185.714103,120.028615 185.783345,144.263022 L111.467924,144.263022 C111.467924,122.404184 107.638287,100.665926 99.9790144,79.0482492 Z" id="Rectangle-Copy" fill="#00FFBF"></path>
                <path d="M119.035608,163.155241 C124.763606,162.327017 146.677576,162.327017 184.777518,163.155241 C183.745294,175.526664 180.620443,188.026738 175.402965,200.655464 C165.720388,201.033899 144.12687,200.955686 110.62241,200.420825 C114.114727,191.136458 116.919126,178.714597 119.035608,163.155241 Z" id="Rectangle-Copy" fill="#00FFBF"></path>
                <path d="M42.316309,176.114702 C53.9337235,175.348121 81.5574601,176.487639 91.884107,176.114702 C90.0194909,185.315753 87.9991772,193.496007 85.823166,200.655464 L34.7882187,201.186746 C39.1786089,194.204811 41.6879723,185.847463 42.316309,176.114702 Z" id="Rectangle-Copy" fill="#00FFBF"></path>
                <path d="M13.2645994,0.923753026 C68.7185125,-0.422670111 90.5028656,-0.0764931295 149.682363,0.573742219 C167.509943,11.8621156 182.793402,32.0782121 195.532743,61.2220316 L54.1462192,61.2220316 C38.4286112,35.0359097 24.8014046,14.9364835 13.2645994,0.923753026 Z" id="Rectangle-Copy" fill="#00FFBF" opacity="0.5"></path>
                <path d="M25.1420889,88.8117747 L69.9533479,88.8117747" id="Path-20" stroke="#FFFFFF" stroke-width="2.66200017"></path>
                <path d="M29.0115938,95.9883862 L55.6123347,95.9883862" id="Path-21" stroke="#FFFFFF" stroke-width="2.66200017"></path>
                <path d="M31.4316152,102.642955 L58.0323561,102.642955" id="Path-21-Copy" stroke="#FFFFFF" stroke-width="2.66200017"></path>
                <polyline id="Path-21-Copy-2" stroke="#FFFFFF" stroke-width="2.66200017" points="39.140733 126.599402 45.6054051 123.29849 51.4723044 127.561165 56.8195605 123.89984 65.7414738 126.599402"></polyline>
                <path d="M39.140733,133.253971 L65.7414738,133.253971" id="Path-21-Copy-3" stroke="#FFFFFF" stroke-width="2.66200017"></path>
                <path d="M121.008198,104.907484 L167.54249,104.907484" id="Path-23" stroke="#FFFFFF" stroke-width="1.33100009"></path>
                <path d="M122.338623,110.231139 L168.872915,110.231139" id="Path-23" stroke="#FFFFFF" stroke-width="1.33100009"></path>
                <polyline id="Path-23" stroke="#FFFFFF" stroke-width="1.33100009" points="123.669047 115.554793 132.446439 117.755401 141.227792 116.143289 152.694857 117.010696 160.264633 115.280934 170.203339 117.755401"></polyline>
                <path d="M124.999472,122.209362 L171.533764,122.209362" id="Path-23" stroke="#FFFFFF" stroke-width="1.33100009"></path>
                <path d="M124.999472,128.863931 L144.925276,128.863931" id="Path-23" stroke="#FFFFFF" stroke-width="1.33100009"></path>
                <path d="M42.1035973,12.4386867 L156.904352,12.4386867" id="Path-24" stroke="#FFFFFF" stroke-width="1.33100009"></path>
                <path d="M49.124499,20.8791311 L71.3141526,20.8791311" id="Path-25" stroke="#FFFFFF" stroke-width="1.33100009"></path>
                <path d="M89.0372311,20.8791311 L111.226885,20.8791311" id="Path-25" stroke="#FFFFFF" stroke-width="1.33100009"></path>
                <path d="M128.949963,20.8791311 L151.139617,20.8791311" id="Path-25" stroke="#FFFFFF" stroke-width="1.33100009"></path>
                <path d="M53.1157722,30.1955272 L75.3054258,30.1955272" id="Path-25" stroke="#FFFFFF" stroke-width="1.33100009"></path>
                <path d="M132.941236,30.1955272 L155.13089,30.1955272" id="Path-25" stroke="#FFFFFF" stroke-width="1.33100009"></path>
                <path d="M58.4374699,39.5119234 L80.6271234,39.5119234" id="Path-25" stroke="#FFFFFF" stroke-width="1.33100009"></path>
                <path d="M98.3502019,39.5119234 L120.539855,39.5119234" id="Path-25" stroke="#FFFFFF" stroke-width="1.33100009"></path>
                <path d="M138.262934,39.5119234 L160.452588,39.5119234" id="Path-25" stroke="#FFFFFF" stroke-width="1.33100009"></path>
                <path d="M126.77483,172.732283 L172.949708,172.732283" id="Path-30" stroke="#FFFFFF" stroke-width="1.33100009"></path>
                <path d="M124.968814,180.272931 L158.782547,180.272931" id="Path-31" stroke="#FFFFFF" stroke-width="1.33100009"></path>
                <path d="M123.758803,185.641323 L153.511905,185.641323" id="Path-32" stroke="#FFFFFF" stroke-width="1.33100009"></path>
                <path d="M122.548792,189.845892 L148.769204,189.845892" id="Path-33" stroke="#FFFFFF" stroke-width="1.33100009"></path>
                <path d="M120.128771,194.690087 L146.349182,194.690087" id="Path-33" stroke="#FFFFFF" stroke-width="1.33100009"></path>
                <path d="M3.63797881e-12,58.1303438 C6.68694821,66.0008416 10.691084,72.1073697 12.0124073,76.4499281" id="Path-9" stroke="url(#linearGradient-1)" stroke-width="1.21000005"></path>
                <path d="M9.59238588,63.128391 C13.6338467,68.3313241 16.0538682,72.3681535 16.8524502,75.2388793" id="Path-9-Copy" stroke="url(#linearGradient-2)" stroke-width="1.21000005"></path>
                <path d="M0,51.9925495 C2.96207612,54.7938812 4.94952736,56.8910966 5.96235374,58.2841957" id="Path-9-Copy" stroke="url(#linearGradient-3)" stroke-width="1.21000005"></path>
                <path d="M43.0679384,177.054259 C43.2068497,171.09657 42.9548583,165.325621 42.3119642,159.741412" id="Path-94" stroke="url(#linearGradient-4)" stroke-width="1.21000005"></path>
                <path d="M46.7645913,176.696681 C46.9034031,173.362724 46.6513149,170.133256 46.0083267,167.008278" id="Path-94" stroke="url(#linearGradient-5)" stroke-width="1.21000005" transform="translate(46.404944, 171.852479) rotate(2.000000) translate(-46.404944, -171.852479) "></path>
                <path d="M217.802628,119.338876 C215.677041,110.857965 213.25702,103.995355 210.542564,98.7510456" id="Path-96" stroke="url(#linearGradient-6)" stroke-width="1.21000005"></path>
                <path d="M221.43266,114.49468 C218.244075,103.249116 214.613809,94.1493946 210.541864,87.1955157" id="Path-96-Copy" stroke="url(#linearGradient-7)" stroke-width="1.21000005"></path>
                <path d="M93.7263985,72.5592212 C96.9407377,77.6010424 99.4161083,83.8259261 101.15251,91.2338723" id="Path-97" stroke="url(#linearGradient-8)" stroke-width="1.21000005"></path>
            </g>
        </g>
        <circle id="Oval" stroke="#222222" stroke-width="2" fill="#222222" opacity="0.100000001" cx="237" cy="158" r="5"></circle>
        <circle id="Oval" stroke="#222222" stroke-width="2" opacity="0.100000001" cx="212" cy="122" r="10"></circle>
        <path d="M216,58 C251.906651,91.845874 273.573318,129.179207 281,170" id="Path-232" stroke="#00FFBF" stroke-width="2.20000005"></path>
    </g>
</svg>